<svg xmlns="http://www.w3.org/2000/svg" width="1351" height="253" fill="none" viewBox="0 0 1351 253">
  <g clip-path="url(#a)" opacity=".5">
    <path fill="#F1F1E2" d="m558.499.001-2.381 2.38 2.381 2.38 2.381-2.38-2.381-2.38Zm-71.577-.004-2.381 2.38 2.381 2.38 2.381-2.38-2.381-2.38ZM415.353 0l-2.381 2.38 2.381 2.38 2.381-2.38L415.353 0Zm-71.572-.001-2.381 2.38 2.381 2.379 2.381-2.38-2.381-2.38Zm-71.569.003-2.381 2.38 2.381 2.38 2.381-2.38-2.381-2.38Zm-71.577-.004-2.381 2.38 2.381 2.379 2.381-2.38-2.381-2.38Zm-71.569.003-2.382 2.38 2.382 2.38 2.381-2.38L129.066 0ZM57.494 0l-2.381 2.379 2.381 2.38 2.381-2.38-2.381-2.38Zm71.569 184.168-2.381 2.38 2.381 2.379 2.381-2.379-2.381-2.38ZM630.068-.002l-2.381 2.38 2.381 2.38 2.381-2.38-2.381-2.38Zm-.285 65.006a.437.437 0 0 0-.174-.42.415.415 0 0 0-.445.063l-1.715.976-.302-.516 1.699-.984c.183-.111.27-.23.27-.365 0-.135-.087-.254-.27-.365l-1.699-.969.302-.516 1.715.977a.448.448 0 0 0 .445.055c.119-.063.174-.206.174-.428v-1.945h.58v1.92c0 .223.064.366.183.43a.446.446 0 0 0 .445-.056l1.715-.976.294.516-1.708.968c-.182.11-.27.23-.27.365 0 .135.088.254.27.365l1.708.984-.294.516-1.715-.976a.412.412 0 0 0-.445-.064.442.442 0 0 0-.183.421v1.96h-.58v-1.936Zm-71.565-.794a.442.442 0 0 0-.183-.42.414.414 0 0 0-.445.063l-1.715.976-.294-.516 1.692-.984c.182-.111.27-.23.27-.365 0-.135-.088-.254-.27-.365l-1.692-.968.294-.516 1.715.976a.448.448 0 0 0 .445.056c.119-.064.183-.207.183-.43v-1.944h.58v1.921c0 .222.055.365.174.429a.447.447 0 0 0 .445-.056l1.716-.976.301.516-1.715.968c-.183.111-.27.23-.27.365 0 .135.087.254.27.365l1.715.984-.301.516-1.716-.976a.413.413 0 0 0-.445-.063.449.449 0 0 0-.174.42v1.96h-.58V64.21Zm-71.574 0a.443.443 0 0 0-.183-.42.41.41 0 0 0-.444.063l-1.716.976-.294-.516 1.7-.984c.175-.111.262-.23.262-.365 0-.135-.087-.254-.262-.365l-1.7-.968.294-.516 1.716.976a.44.44 0 0 0 .444.056c.12-.064.183-.207.183-.43v-1.944h.58v1.921c0 .222.056.365.175.429a.457.457 0 0 0 .452-.056l1.708-.976.302.516-1.716.968c-.175.111-.27.23-.27.365 0 .135.095.254.27.365l1.716.984-.302.516-1.708-.976a.425.425 0 0 0-.452-.063.443.443 0 0 0-.175.42v1.96h-.58V64.21Zm-71.573 0a.45.45 0 0 0-.183-.42c-.119-.072-.262-.048-.445.063l-1.707.976-.302-.516 1.699-.984c.175-.111.27-.23.27-.365 0-.135-.095-.254-.27-.365l-1.699-.968.302-.516 1.707.976a.448.448 0 0 0 .445.056c.119-.064.183-.207.183-.43v-1.944h.579v1.921c0 .222.064.365.183.429a.446.446 0 0 0 .445-.056l1.707-.976.302.516-1.715.968c-.175.111-.262.23-.262.365 0 .135.087.254.262.365l1.715.984-.302.516-1.707-.976c-.183-.111-.326-.135-.445-.063a.442.442 0 0 0-.183.42v1.96h-.579V64.21Zm-71.574 0a.443.443 0 0 0-.175-.42.428.428 0 0 0-.453.063l-1.707.976-.302-.516 1.7-.984c.182-.111.27-.23.27-.365 0-.135-.088-.254-.27-.365l-1.7-.968.302-.516 1.707.976a.465.465 0 0 0 .453.056c.119-.064.175-.207.175-.43v-1.944h.58v1.921c0 .222.063.365.182.429a.447.447 0 0 0 .445-.056l1.716-.976.293.516-1.707.968c-.183.111-.27.23-.27.365 0 .135.087.254.27.365l1.707.984-.293.516-1.716-.976a.413.413 0 0 0-.445-.063.44.44 0 0 0-.149.185c-.033.074-.044.155-.033.235v1.96h-.58V64.21Zm-71.574 0a.437.437 0 0 0-.174-.42.415.415 0 0 0-.445.063l-1.716.976-.293-.516 1.691-.984c.183-.111.27-.23.27-.365 0-.135-.087-.254-.27-.365l-1.691-.968.293-.516 1.716.976a.444.444 0 0 0 .445.056c.119-.064.174-.207.174-.43v-1.944h.588v1.921c0 .222.056.365.175.429a.446.446 0 0 0 .445-.056l1.715-.976.294.516-1.708.968c-.182.111-.27.23-.27.365 0 .135.088.254.27.365l1.708.984-.294.516-1.715-.976a.414.414 0 0 0-.445-.063.443.443 0 0 0-.175.42v1.96h-.588V64.21Zm-71.565 0a.442.442 0 0 0-.183-.42.414.414 0 0 0-.445.063l-1.715.976-.294-.516 1.699-.984c.175-.111.263-.23.263-.365 0-.135-.088-.254-.263-.365l-1.699-.968.294-.516 1.715.976a.448.448 0 0 0 .445.056c.119-.064.183-.207.183-.43v-1.944h.579v1.921c0 .222.056.365.175.429a.46.46 0 0 0 .453-.056l1.707-.976.302.516-1.715.968c-.175.111-.27.23-.27.365 0 .135.095.254.27.365l1.715.984-.302.516-1.707-.976a.429.429 0 0 0-.453-.063.44.44 0 0 0-.175.42v1.96h-.579V64.21Zm-71.574 0a.443.443 0 0 0-.183-.42c-.119-.072-.262-.048-.444.063l-1.716.976-.294-.516 1.7-.984c.175-.111.262-.23.262-.365 0-.135-.087-.254-.262-.365l-1.7-.968.294-.516 1.716.976a.44.44 0 0 0 .444.056c.119-.064.183-.207.183-.43v-1.944h.58v1.921c0 .222.055.365.182.429a.447.447 0 0 0 .445-.056l1.708-.976.302.516-1.716.968c-.175.111-.27.23-.27.365 0 .135.095.254.27.365l1.716.984-.302.516-1.708-.976c-.182-.111-.325-.135-.445-.063a.427.427 0 0 0-.182.42v1.96h-.58V64.21Zm-71.574 0a.445.445 0 0 0-.174-.42.43.43 0 0 0-.453.063l-1.708.976-.301-.516 1.7-.984c.174-.111.27-.23.27-.365 0-.135-.096-.254-.27-.365l-1.7-.968.301-.516 1.708.976a.46.46 0 0 0 .453.056c.119-.064.174-.207.174-.43v-1.944h.58v1.921c0 .222.064.365.183.429a.446.446 0 0 0 .445-.056l1.715-.976.294.516-1.716.968c-.174.111-.262.23-.262.365 0 .135.088.254.262.365l1.716.984-.294.516-1.715-.976c-.183-.111-.326-.135-.445-.063a.444.444 0 0 0-.183.42v1.96h-.58V64.21Z"/>
    <path fill="#F1F1E2" stroke="#F1F1E2" stroke-miterlimit="10" d="M558.504 130.444a1.62 1.62 0 1 0 .001-3.239 1.62 1.62 0 0 0-.001 3.239Zm-71.574 0a1.62 1.62 0 1 0 .001-3.239 1.62 1.62 0 0 0-.001 3.239Zm-71.574 0a1.62 1.62 0 0 0 1.621-1.619 1.62 1.62 0 0 0-3.241 0 1.62 1.62 0 0 0 1.62 1.619Zm-71.573 0a1.62 1.62 0 1 0 .001-3.239 1.62 1.62 0 0 0-.001 3.239Zm-71.566 0a1.62 1.62 0 1 0 .001-3.239 1.62 1.62 0 0 0-.001 3.239Zm-71.573 0a1.62 1.62 0 1 0 0-3.24 1.62 1.62 0 0 0 0 3.24Zm-71.574 0a1.62 1.62 0 1 0 .001-3.239 1.62 1.62 0 0 0-.001 3.239Zm-71.574 0a1.62 1.62 0 1 0 .001-3.24 1.62 1.62 0 0 0 0 3.24Zm572.573 0a1.62 1.62 0 0 0 1.621-1.619 1.62 1.62 0 0 0-3.241 0 1.62 1.62 0 0 0 1.62 1.619Zm-71.565 58.488a1.62 1.62 0 1 0 0-3.24 1.62 1.62 0 0 0 0 3.24Zm-71.574 0a1.62 1.62 0 1 0 0-3.24 1.62 1.62 0 0 0 0 3.24Zm-71.574 0a1.62 1.62 0 1 0 .001-3.24 1.62 1.62 0 0 0-.001 3.24Zm-71.573 0a1.62 1.62 0 1 0 0-3.24 1.62 1.62 0 0 0 0 3.24Zm-71.566 0a1.62 1.62 0 1 0 0-3.24 1.62 1.62 0 0 0 0 3.24Zm-71.573 0a1.62 1.62 0 1 0 0-3.24 1.62 1.62 0 0 0 0 3.24Zm-143.148 0a1.62 1.62 0 1 0 0-3.24 1.62 1.62 0 0 0 0 3.24Zm572.573 0a1.62 1.62 0 1 0 .001-3.24 1.62 1.62 0 0 0-.001 3.24Zm-71.565 58.773a1.62 1.62 0 1 0 .001-3.239 1.62 1.62 0 0 0-.001 3.239Zm-71.574 0a1.62 1.62 0 1 0 .001-3.239 1.62 1.62 0 0 0-.001 3.239Zm-71.574 0a1.62 1.62 0 1 0 .003-3.237 1.62 1.62 0 0 0-.003 3.237Zm-71.573 0a1.62 1.62 0 1 0 .001-3.239 1.62 1.62 0 0 0-.001 3.239Zm-71.566 0a1.62 1.62 0 1 0 .001-3.239 1.62 1.62 0 0 0-.001 3.239Zm-71.573 0a1.62 1.62 0 1 0 0-3.24 1.62 1.62 0 0 0 0 3.24Zm-71.574 0a1.62 1.62 0 1 0 .001-3.239 1.62 1.62 0 0 0-.001 3.239Zm-71.574 0a1.62 1.62 0 1 0 .001-3.24 1.62 1.62 0 0 0 0 3.24Zm572.573 0a1.62 1.62 0 1 0 .003-3.237 1.62 1.62 0 0 0-.003 3.237Z"/>
  </g>
  <g clip-path="url(#b)" opacity=".5">
    <path fill="#F1F1E2" d="m1276.5.001-2.38 2.38 2.38 2.38 2.38-2.38-2.38-2.38Zm-71.58-.004-2.38 2.38 2.38 2.38 2.38-2.38-2.38-2.38ZM1133.35 0l-2.38 2.38 2.38 2.38 2.38-2.38-2.38-2.38Zm-71.57-.001-2.38 2.38 2.38 2.379 2.38-2.38-2.38-2.38Zm-71.568.003-2.381 2.38 2.381 2.38 2.381-2.38-2.381-2.38Zm-71.577-.004-2.381 2.38 2.381 2.379 2.381-2.38-2.381-2.38Zm-71.569.003-2.382 2.38 2.382 2.38 2.381-2.38L847.066 0ZM775.494 0l-2.381 2.379 2.381 2.38 2.381-2.38-2.381-2.38Zm-71.569-.005-2.381 2.38 2.381 2.379 2.381-2.38-2.381-2.38Zm143.138 184.173-2.381 2.38 2.381 2.379 2.381-2.379-2.381-2.38ZM1348.07-.002l-2.38 2.38 2.38 2.38 2.38-2.38-2.38-2.38Zm-.29 65.006a.463.463 0 0 0-.17-.42.431.431 0 0 0-.45.064l-1.71.975-.3-.516 1.7-.984c.18-.111.27-.23.27-.365 0-.135-.09-.254-.27-.365l-1.7-.969.3-.516 1.71.977c.07.047.14.078.22.087a.44.44 0 0 0 .23-.032c.12-.063.17-.206.17-.428v-1.945h.58v1.92c0 .223.07.366.19.43a.44.44 0 0 0 .44-.056l1.72-.976.29.516-1.71.968c-.18.11-.27.23-.27.365 0 .135.09.254.27.365l1.71.984-.29.516-1.72-.976a.4.4 0 0 0-.44-.064.401.401 0 0 0-.15.185c-.04.074-.05.156-.04.236v1.96h-.58v-1.936Zm-71.56-.794a.39.39 0 0 0-.04-.236.452.452 0 0 0-.14-.185.45.45 0 0 0-.24-.034.4.4 0 0 0-.21.098l-1.72.976-.29-.516 1.69-.984c.19-.111.27-.23.27-.365 0-.135-.08-.254-.27-.365l-1.69-.968.29-.516 1.72.976c.06.048.14.078.22.088a.47.47 0 0 0 .23-.032c.11-.064.18-.207.18-.43v-1.944h.58v1.921c0 .222.05.365.17.429.07.03.15.042.23.032.08-.01.15-.04.22-.088l1.71-.976.3.516-1.71.968c-.18.111-.27.23-.27.365 0 .135.09.254.27.365l1.71.984-.3.516-1.71-.976a.432.432 0 0 0-.45-.063.463.463 0 0 0-.14.186.468.468 0 0 0-.03.234v1.96h-.58V64.21Zm-71.58 0c.01-.08 0-.161-.03-.236a.401.401 0 0 0-.15-.185.403.403 0 0 0-.44.064l-1.72.976-.29-.516 1.7-.984c.17-.111.26-.23.26-.365 0-.135-.09-.254-.26-.365l-1.7-.968.29-.516 1.72.976a.44.44 0 0 0 .44.056c.12-.064.18-.207.18-.43v-1.944h.58v1.921c0 .222.06.365.18.429.07.03.15.042.23.032.08-.01.16-.04.22-.088l1.71-.976.3.516-1.71.968c-.18.111-.27.23-.27.365 0 .135.09.254.27.365l1.71.984-.3.516-1.71-.976a.431.431 0 0 0-.45-.063.41.41 0 0 0-.15.186.468.468 0 0 0-.03.234v1.96h-.58V64.21Zm-71.57 0c.01-.08 0-.161-.03-.236a.475.475 0 0 0-.15-.185c-.12-.071-.26-.047-.45.064l-1.7.976-.31-.516 1.7-.984c.18-.111.27-.23.27-.365 0-.135-.09-.254-.27-.365l-1.7-.968.31-.516 1.7.976c.07.048.14.078.22.088a.44.44 0 0 0 .23-.032c.12-.064.18-.207.18-.43v-1.944h.58v1.921c0 .222.06.365.18.429a.455.455 0 0 0 .45-.056l1.71-.976.3.516-1.72.968c-.17.111-.26.23-.26.365 0 .135.09.254.26.365l1.72.984-.3.516-1.71-.976c-.18-.111-.33-.135-.45-.063a.585.585 0 0 0-.15.185.473.473 0 0 0-.03.235v1.96h-.58V64.21Zm-71.57 0c.01-.08 0-.16-.03-.234a.41.41 0 0 0-.15-.187.432.432 0 0 0-.45.063l-1.71.977-.3-.516 1.7-.984c.18-.111.27-.23.27-.365 0-.135-.09-.254-.27-.365l-1.7-.968.3-.516 1.71.976c.06.048.14.078.22.088a.44.44 0 0 0 .23-.032c.12-.064.18-.207.18-.43v-1.944h.58v1.921c0 .222.06.365.18.429a.44.44 0 0 0 .44-.056l1.72-.976.29.516-1.7.968c-.19.111-.27.23-.27.365 0 .135.08.254.27.365l1.7.984-.29.516-1.72-.976a.4.4 0 0 0-.44-.063.401.401 0 0 0-.15.185.473.473 0 0 0-.03.235v1.96h-.58V64.21Zm-71.577 0a.437.437 0 0 0-.174-.42.415.415 0 0 0-.445.063l-1.716.976-.293-.516 1.691-.984c.183-.111.27-.23.27-.365 0-.135-.087-.254-.27-.365l-1.691-.968.293-.516 1.716.976a.444.444 0 0 0 .445.056c.119-.064.174-.207.174-.43v-1.944h.588v1.921c0 .222.056.365.175.429a.446.446 0 0 0 .445-.056l1.715-.976.294.516-1.708.968c-.182.111-.27.23-.27.365 0 .135.088.254.27.365l1.708.984-.294.516-1.715-.976a.414.414 0 0 0-.445-.063.443.443 0 0 0-.175.42v1.96h-.588V64.21Zm-71.565 0a.442.442 0 0 0-.183-.42.414.414 0 0 0-.445.063l-1.715.976-.294-.516 1.699-.984c.175-.111.263-.23.263-.365 0-.135-.088-.254-.263-.365l-1.699-.968.294-.516 1.715.976a.448.448 0 0 0 .445.056c.119-.064.183-.207.183-.43v-1.944h.579v1.921c0 .222.056.365.175.429a.46.46 0 0 0 .453-.056l1.707-.976.302.516-1.715.968c-.175.111-.27.23-.27.365 0 .135.095.254.27.365l1.715.984-.302.516-1.707-.976a.429.429 0 0 0-.453-.063.44.44 0 0 0-.175.42v1.96h-.579V64.21Zm-71.574 0a.443.443 0 0 0-.183-.42c-.119-.072-.262-.048-.444.063l-1.716.976-.294-.516 1.7-.984c.175-.111.262-.23.262-.365 0-.135-.087-.254-.262-.365l-1.7-.968.294-.516 1.716.976a.44.44 0 0 0 .444.056c.119-.064.183-.207.183-.43v-1.944h.58v1.921c0 .222.055.365.182.429a.447.447 0 0 0 .445-.056l1.708-.976.302.516-1.716.968c-.175.111-.27.23-.27.365 0 .135.095.254.27.365l1.716.984-.302.516-1.708-.976c-.182-.111-.325-.135-.445-.063a.427.427 0 0 0-.182.42v1.96h-.58V64.21Zm-71.574 0a.437.437 0 0 0-.174-.42.431.431 0 0 0-.453.063l-1.708.976-.301-.516 1.699-.984c.175-.111.27-.23.27-.365 0-.135-.095-.254-.27-.365l-1.699-.968.301-.516 1.708.976a.46.46 0 0 0 .453.056c.119-.064.174-.207.174-.43v-1.944h.58v1.921c0 .222.064.365.183.429a.446.446 0 0 0 .445-.056l1.715-.976.294.516-1.716.968c-.174.111-.262.23-.262.365 0 .135.088.254.262.365l1.716.984-.294.516-1.715-.976c-.183-.111-.326-.135-.445-.063a.442.442 0 0 0-.183.42v1.96h-.58V64.21Zm-71.573 0a.448.448 0 0 0-.175-.42.414.414 0 0 0-.445.063l-1.715 1.016-.302-.516 1.7-.984c.182-.111.27-.23.27-.365 0-.135-.088-.254-.27-.365l-1.7-.969.302-.516 1.715.977a.448.448 0 0 0 .445.055c.119-.063.175-.206.175-.428v-1.945h.58v1.881c0 .222.063.365.182.429a.445.445 0 0 0 .445-.056l1.715-.976.294.516-1.707.968c-.183.111-.27.23-.27.365 0 .135.087.254.27.365l1.707.984-.294.516-1.715-.976a.412.412 0 0 0-.445-.063.443.443 0 0 0-.182.42v1.96h-.58V64.21Z"/>
    <path fill="#F1F1E2" stroke="#F1F1E2" stroke-miterlimit="10" d="M1276.5 130.444c.9 0 1.62-.725 1.62-1.619s-.72-1.619-1.62-1.619c-.89 0-1.62.725-1.62 1.619s.73 1.619 1.62 1.619Zm-71.57 0c.89 0 1.62-.725 1.62-1.619s-.73-1.619-1.62-1.619c-.89 0-1.62.725-1.62 1.619s.73 1.619 1.62 1.619Zm-71.57 0c.89 0 1.62-.725 1.62-1.619s-.73-1.619-1.62-1.619c-.9 0-1.62.725-1.62 1.619s.72 1.619 1.62 1.619Zm-71.58 0c.9 0 1.62-.725 1.62-1.619s-.72-1.619-1.62-1.619c-.89 0-1.62.725-1.62 1.619s.73 1.619 1.62 1.619Zm-71.563 0a1.62 1.62 0 1 0 .001-3.239 1.62 1.62 0 0 0-.001 3.239Zm-71.573 0a1.62 1.62 0 1 0 0-3.24 1.62 1.62 0 0 0 0 3.24Zm-71.574 0a1.62 1.62 0 1 0 .001-3.239 1.62 1.62 0 0 0-.001 3.239Zm-71.574 0a1.62 1.62 0 1 0 .001-3.239 1.62 1.62 0 0 0-.001 3.239Zm-71.573 0a1.62 1.62 0 1 0 0-3.24 1.62 1.62 0 0 0 0 3.24Zm644.147 0c.89 0 1.62-.725 1.62-1.619s-.73-1.619-1.62-1.619c-.9 0-1.62.725-1.62 1.619s.72 1.619 1.62 1.619Zm-71.57 58.488c.9 0 1.62-.725 1.62-1.62 0-.894-.72-1.619-1.62-1.619-.89 0-1.62.725-1.62 1.619 0 .895.73 1.62 1.62 1.62Zm-71.57 0c.89 0 1.62-.725 1.62-1.62 0-.894-.73-1.619-1.62-1.619-.89 0-1.62.725-1.62 1.619 0 .895.73 1.62 1.62 1.62Zm-71.57 0c.89 0 1.62-.725 1.62-1.62 0-.894-.73-1.619-1.62-1.619-.9 0-1.62.725-1.62 1.619 0 .895.72 1.62 1.62 1.62Zm-71.58 0c.9 0 1.62-.725 1.62-1.62 0-.894-.72-1.619-1.62-1.619-.89 0-1.62.725-1.62 1.619 0 .895.73 1.62 1.62 1.62Zm-71.563 0a1.62 1.62 0 1 0 0-3.24 1.62 1.62 0 0 0 0 3.24Zm-71.573 0a1.62 1.62 0 1 0 0-3.24 1.62 1.62 0 0 0 0 3.24Zm-143.148 0a1.62 1.62 0 1 0 0-3.24 1.62 1.62 0 0 0 0 3.24Zm-71.573 0a1.62 1.62 0 1 0 0-3.24 1.62 1.62 0 0 0 0 3.24Zm644.147 0c.89 0 1.62-.725 1.62-1.62 0-.894-.73-1.619-1.62-1.619-.9 0-1.62.725-1.62 1.619 0 .895.72 1.62 1.62 1.62Zm-71.57 58.773c.9 0 1.62-.725 1.62-1.619 0-.895-.72-1.619-1.62-1.619-.89 0-1.62.724-1.62 1.619 0 .894.73 1.619 1.62 1.619Zm-71.57 0c.89 0 1.62-.725 1.62-1.619 0-.895-.73-1.619-1.62-1.619-.89 0-1.62.724-1.62 1.619 0 .894.73 1.619 1.62 1.619Zm-71.57 0c.89 0 1.62-.725 1.62-1.619 0-.895-.73-1.619-1.62-1.619-.9 0-1.62.724-1.62 1.619 0 .894.72 1.619 1.62 1.619Zm-71.58 0c.9 0 1.62-.725 1.62-1.619 0-.895-.72-1.619-1.62-1.619-.89 0-1.62.724-1.62 1.619 0 .894.73 1.619 1.62 1.619Zm-71.563 0a1.62 1.62 0 1 0 .001-3.239 1.62 1.62 0 0 0-.001 3.239Zm-71.573 0a1.62 1.62 0 1 0 0-3.24 1.62 1.62 0 0 0 0 3.24Zm-71.574 0a1.62 1.62 0 1 0 .001-3.239 1.62 1.62 0 0 0-.001 3.239Zm-71.574 0a1.62 1.62 0 1 0 .001-3.239 1.62 1.62 0 0 0-.001 3.239Zm-71.573 0a1.62 1.62 0 1 0 0-3.24 1.62 1.62 0 0 0 0 3.24Zm644.147 0c.89 0 1.62-.725 1.62-1.619 0-.895-.73-1.619-1.62-1.619-.9 0-1.62.724-1.62 1.619 0 .894.72 1.619 1.62 1.619Z"/>
  </g>
  <defs>
    <clipPath id="a">
      <path fill="#fff" d="M0 0h650v550H0z" transform="translate(-17)"/>
    </clipPath>
    <clipPath id="b">
      <path fill="#fff" d="M0 0h650v550H0z" transform="translate(701)"/>
    </clipPath>
  </defs>
</svg>
