<svg xmlns="http://www.w3.org/2000/svg" width="953" height="806" fill="none" viewBox="0 0 953 806">
  <g clip-path="url(#a)" opacity=".5" style="mix-blend-mode:multiply">
    <path fill="#3F3E3D" d="m843.77.002-3.491 3.487 3.491 3.487 3.491-3.487L843.77.002ZM738.827-.004l-3.491 3.487 3.491 3.487 3.491-3.487-3.491-3.487ZM633.896 0l-3.491 3.488 3.491 3.487 3.491-3.487-3.491-3.487ZM528.961-.002l-3.491 3.487 3.491 3.487 3.491-3.487-3.491-3.487ZM424.029.003l-3.491 3.487 3.491 3.487 3.491-3.487-3.491-3.487ZM319.086-.003l-3.491 3.487 3.491 3.487 3.491-3.487-3.491-3.487ZM214.155.002l-3.491 3.487 3.491 3.487 3.491-3.487-3.491-3.487ZM109.22-.001l-3.491 3.487 3.491 3.487 3.491-3.487-3.491-3.487ZM4.288-.008.798 3.48l3.49 3.488L7.78 3.479 4.29-.008ZM214.151 269.89l-3.491 3.487 3.491 3.488 3.491-3.488-3.491-3.487ZM948.702-.003l-3.491 3.487 3.491 3.487 3.491-3.487-3.491-3.487Zm-.418 95.263a.651.651 0 0 0-.256-.616.606.606 0 0 0-.652.093l-2.515 1.43-.443-.756 2.492-1.442c.268-.163.396-.337.396-.535s-.128-.372-.396-.535l-2.492-1.42.443-.755 2.515 1.43a.652.652 0 0 0 .652.082c.175-.093.256-.303.256-.628v-2.85h.85v2.815c0 .326.093.535.268.628a.652.652 0 0 0 .652-.081l2.515-1.431.431.756-2.504 1.419c-.267.163-.395.337-.395.535s.128.372.395.535L953 95.376l-.431.756-2.515-1.43a.608.608 0 0 0-.652-.093.647.647 0 0 0-.268.616v2.873h-.85V95.26Zm-104.926-1.163a.659.659 0 0 0-.048-.346.663.663 0 0 0-.22-.27.606.606 0 0 0-.652.093l-2.515 1.43-.431-.756 2.48-1.442c.268-.163.396-.337.396-.535s-.128-.372-.396-.535l-2.48-1.42.431-.755 2.515 1.43a.652.652 0 0 0 .652.082c.175-.093.268-.303.268-.628v-2.85h.85v2.815c0 .325.081.535.256.628a.652.652 0 0 0 .652-.082l2.515-1.43.443.756-2.515 1.419c-.268.163-.396.337-.396.535s.128.372.396.535l2.515 1.442-.443.756-2.515-1.43a.607.607 0 0 0-.652-.094.653.653 0 0 0-.256.617v2.873h-.85v-2.838Zm-104.938 0a.655.655 0 0 0-.268-.617.606.606 0 0 0-.652.093l-2.515 1.431-.431-.756 2.492-1.442c.256-.163.384-.337.384-.535s-.128-.372-.384-.535l-2.492-1.42.431-.755 2.515 1.43a.652.652 0 0 0 .652.082c.175-.093.268-.303.268-.628v-2.85h.85v2.815c0 .325.081.535.256.628a.676.676 0 0 0 .664-.082l2.503-1.43.443.756-2.515 1.419c-.257.163-.396.337-.396.535s.139.372.396.535l2.515 1.442-.443.756-2.503-1.43a.63.63 0 0 0-.664-.094.653.653 0 0 0-.256.617v2.873h-.85v-2.838Zm-104.938 0a.65.65 0 0 0-.268-.617c-.175-.104-.384-.07-.652.093l-2.503 1.431-.443-.756 2.492-1.442c.256-.163.396-.337.396-.535s-.14-.372-.396-.535l-2.492-1.42.443-.755 2.503 1.43a.656.656 0 0 0 .652.082c.175-.093.268-.303.268-.628v-2.85h.85v2.815c0 .325.093.535.268.628a.65.65 0 0 0 .652-.082l2.503-1.43.443.756-2.515 1.419c-.257.163-.385.337-.385.535s.128.372.385.535l2.515 1.442-.443.756-2.503-1.43c-.268-.163-.478-.198-.652-.094a.647.647 0 0 0-.268.617v2.873h-.85v-2.838Zm-104.938 0a.651.651 0 0 0-.256-.617.63.63 0 0 0-.664.093l-2.503 1.431-.443-.756 2.492-1.442c.268-.163.396-.337.396-.535s-.128-.372-.396-.535l-2.492-1.42.443-.755 2.503 1.43a.676.676 0 0 0 .664.082c.174-.093.256-.303.256-.628v-2.85h.85v2.815c0 .325.093.535.268.628a.65.65 0 0 0 .652-.082l2.515-1.43.431.756-2.504 1.419c-.267.163-.396.337-.396.535s.129.372.396.535l2.504 1.442-.431.756-2.515-1.43a.607.607 0 0 0-.652-.094.647.647 0 0 0-.268.617v2.873h-.85v-2.838Zm-104.938 0a.651.651 0 0 0-.256-.617.606.606 0 0 0-.652.093l-2.515 1.431-.431-.756 2.48-1.442c.268-.163.396-.337.396-.535s-.128-.372-.396-.535l-2.48-1.42.431-.755 2.515 1.43a.648.648 0 0 0 .652.082c.175-.093.256-.303.256-.628v-2.85h.862v2.815c0 .325.081.535.256.628a.65.65 0 0 0 .652-.082l2.515-1.43.431.756-2.504 1.419c-.267.163-.395.337-.395.535s.128.372.395.535l2.504 1.442-.431.756-2.515-1.43a.607.607 0 0 0-.652-.094.645.645 0 0 0-.256.617v2.873h-.862v-2.838Zm-104.926 0a.659.659 0 0 0-.048-.346.663.663 0 0 0-.22-.27.606.606 0 0 0-.652.093l-2.515 1.43-.431-.756 2.492-1.442c.256-.163.384-.337.384-.535s-.128-.372-.384-.535l-2.492-1.42.431-.755 2.515 1.43a.648.648 0 0 0 .652.082c.175-.093.268-.303.268-.628v-2.85h.85v2.815c0 .325.081.535.256.628a.676.676 0 0 0 .664-.082l2.503-1.43.443.756-2.516 1.419c-.256.163-.395.337-.395.535s.139.372.395.535l2.516 1.442-.443.756-2.503-1.43a.63.63 0 0 0-.664-.094.645.645 0 0 0-.256.617v2.873h-.85v-2.838Zm-104.938 0a.659.659 0 0 0-.048-.346.663.663 0 0 0-.22-.27c-.175-.105-.384-.07-.652.093l-2.515 1.43-.431-.756 2.492-1.442c.256-.163.384-.337.384-.535s-.128-.372-.384-.535l-2.492-1.42.431-.755 2.515 1.43a.652.652 0 0 0 .652.082c.175-.093.268-.303.268-.628v-2.85h.85v2.815c0 .325.081.535.268.628a.65.65 0 0 0 .652-.082l2.503-1.43.443.756-2.515 1.419c-.257.163-.396.337-.396.535s.139.372.396.535l2.515 1.442-.443.756-2.503-1.43c-.268-.163-.478-.198-.652-.094a.63.63 0 0 0-.268.617v2.873h-.85v-2.838Zm-104.938 0a.651.651 0 0 0-.256-.617.631.631 0 0 0-.664.093l-2.504 1.431-.442-.756 2.492-1.442c.256-.163.396-.337.396-.535s-.14-.372-.396-.535l-2.492-1.42.442-.755 2.504 1.43a.676.676 0 0 0 .664.082c.174-.093.256-.303.256-.628v-2.85h.85v2.815c0 .325.093.535.268.628a.65.65 0 0 0 .652-.082l2.515-1.43.431.756-2.515 1.419c-.257.163-.385.337-.385.535s.128.372.385.535l2.515 1.442-.431.756-2.515-1.43c-.268-.163-.478-.198-.652-.094a.647.647 0 0 0-.268.617v2.873h-.85v-2.838Zm-104.938 0a.65.65 0 0 0-.256-.616.606.606 0 0 0-.652.093L.442 95.061 0 94.306l2.492-1.442c.268-.163.396-.337.396-.535s-.128-.372-.396-.535L0 90.374l.442-.755 2.516 1.43a.653.653 0 0 0 .652.082c.174-.093.256-.302.256-.628v-2.85h.85v2.757c0 .326.093.535.268.628a.653.653 0 0 0 .652-.081l2.515-1.431.43.756L6.079 91.7c-.268.163-.396.337-.396.535s.128.372.396.535l2.504 1.442-.431.756-2.515-1.43a.606.606 0 0 0-.652-.094.652.652 0 0 0-.268.617v2.873h-.85v-2.838Z"/>
    <path stroke="#3F3E3D" stroke-miterlimit="10" d="M843.777 191.16a2.374 2.374 0 1 0 .002-4.748 2.374 2.374 0 0 0-.002 4.748Zm-104.938 0a2.374 2.374 0 1 0 .002-4.748 2.374 2.374 0 0 0-.002 4.748Zm-104.938 0a2.374 2.374 0 1 0 .002-4.748 2.374 2.374 0 0 0-.002 4.748Zm-104.938 0a2.375 2.375 0 0 0 2.376-2.373 2.375 2.375 0 0 0-4.751 0 2.374 2.374 0 0 0 2.375 2.373Zm-104.926 0a2.374 2.374 0 1 0 0-4.746 2.375 2.375 0 0 0-2.376 2.373 2.375 2.375 0 0 0 2.376 2.373Zm-104.938 0a2.374 2.374 0 1 0 0-4.746 2.375 2.375 0 0 0-2.376 2.373 2.375 2.375 0 0 0 2.376 2.373Zm-104.938 0a2.374 2.374 0 1 0 .002-4.748 2.374 2.374 0 0 0-.002 4.748Zm-104.938 0a2.374 2.374 0 1 0 .002-4.748 2.374 2.374 0 0 0-.002 4.748Zm-104.938 0a2.375 2.375 0 0 0 2.376-2.373 2.375 2.375 0 0 0-4.751 0 2.375 2.375 0 0 0 2.375 2.373Zm944.418 0a2.375 2.375 0 0 0 2.376-2.373 2.375 2.375 0 0 0-4.751 0 2.374 2.374 0 0 0 2.375 2.373Zm-104.926 85.711a2.374 2.374 0 1 0 .002-4.748 2.374 2.374 0 0 0-.002 4.748Zm-104.938 0a2.374 2.374 0 1 0 .002-4.748 2.374 2.374 0 0 0-.002 4.748Zm-104.938 0a2.374 2.374 0 1 0 .002-4.748 2.374 2.374 0 0 0-.002 4.748Zm-104.938 0a2.375 2.375 0 0 0 2.376-2.373 2.374 2.374 0 0 0-2.376-2.373 2.374 2.374 0 1 0 0 4.746Zm-104.926 0a2.374 2.374 0 1 0 0-4.746 2.374 2.374 0 0 0-2.376 2.373 2.375 2.375 0 0 0 2.376 2.373Zm-104.938 0a2.374 2.374 0 1 0 0-4.746 2.374 2.374 0 0 0-2.376 2.373 2.375 2.375 0 0 0 2.376 2.373Zm-209.876 0a2.374 2.374 0 1 0 .002-4.748 2.374 2.374 0 0 0-.002 4.748Zm-104.938 0a2.374 2.374 0 1 0 0-4.746 2.374 2.374 0 1 0 0 4.746Zm944.418 0a2.375 2.375 0 0 0 2.376-2.373 2.374 2.374 0 0 0-2.376-2.373 2.374 2.374 0 1 0 0 4.746ZM843.777 363a2.374 2.374 0 1 0 0-4.745 2.373 2.373 0 1 0 0 4.745Zm-104.938 0a2.374 2.374 0 1 0 0-4.745 2.373 2.373 0 1 0 0 4.745Zm-104.938 0a2.374 2.374 0 1 0 0-4.745 2.373 2.373 0 1 0 0 4.745Zm-104.938 0a2.374 2.374 0 0 0 2.376-2.373 2.374 2.374 0 0 0-2.376-2.372 2.373 2.373 0 1 0 0 4.745Zm-104.926 0a2.374 2.374 0 1 0 0-4.745 2.374 2.374 0 0 0-2.376 2.372 2.374 2.374 0 0 0 2.376 2.373Zm-104.938 0a2.374 2.374 0 1 0 0-4.745 2.374 2.374 0 0 0-2.376 2.372 2.374 2.374 0 0 0 2.376 2.373Zm-104.938 0a2.374 2.374 0 1 0 0-4.745 2.373 2.373 0 1 0 0 4.745Zm-104.938 0a2.374 2.374 0 1 0 0-4.745 2.373 2.373 0 1 0 0 4.745ZM4.285 363a2.374 2.374 0 1 0 0-4.745 2.374 2.374 0 1 0 0 4.745Zm944.418 0a2.374 2.374 0 0 0 2.376-2.373 2.374 2.374 0 0 0-2.376-2.372 2.373 2.373 0 1 0 0 4.745Z"/>
    <path fill="#3F3E3D" d="m843.773 442.411-3.491 3.488 3.491 3.487 3.491-3.487-3.491-3.488Zm-104.943.006-3.491 3.487 3.491 3.487 3.491-3.487-3.491-3.487Zm-104.932.005-3.491 3.487 3.491 3.487 3.491-3.487-3.491-3.487Zm-104.935-.015-3.491 3.487 3.491 3.487 3.491-3.487-3.491-3.487Zm-104.931.005-3.491 3.488 3.491 3.487 3.491-3.487-3.491-3.488Zm-104.932.005-3.491 3.488 3.491 3.487 3.491-3.487-3.491-3.488Zm-104.943.006-3.491 3.487 3.491 3.487 3.491-3.487-3.491-3.487Zm-104.923-.015-3.491 3.487 3.491 3.487 3.491-3.487-3.491-3.487Zm-104.944.005L.8 445.9l3.49 3.488 3.492-3.488-3.491-3.487Zm209.864 269.898-3.491 3.487 3.491 3.487 3.491-3.487-3.491-3.487Zm734.55-269.893-3.491 3.487 3.491 3.487 3.491-3.487-3.491-3.487Zm-.42 95.249a.66.66 0 0 0-.256-.617.626.626 0 0 0-.652.093l-2.515 1.443-.443-.768 2.492-1.442a.648.648 0 0 0 .396-.535.678.678 0 0 0-.396-.535l-2.492-1.408.443-.767 2.515 1.442a.674.674 0 0 0 .652.07c.175-.093.256-.303.256-.617v-2.861h.85v2.861a.63.63 0 0 0 .047.346.635.635 0 0 0 .221.271.686.686 0 0 0 .652-.07l2.515-1.442.431.767-2.504 1.408a.67.67 0 0 0-.395.535.643.643 0 0 0 .395.535l2.504 1.442-.431.768-2.515-1.443a.626.626 0 0 0-.652-.093.665.665 0 0 0-.268.617v2.873h-.85v-2.873Zm-104.926-1.163a.667.667 0 0 0-.268-.617.626.626 0 0 0-.652.093l-2.515 1.442-.431-.767 2.48-1.442a.642.642 0 0 0 .396-.535c0-.198-.128-.373-.396-.536l-2.48-1.407.431-.768 2.515 1.443a.674.674 0 0 0 .652.069.634.634 0 0 0 .268-.616v-2.861h.85v2.861c0 .314.081.523.256.616a.675.675 0 0 0 .652-.069l2.515-1.443.443.768-2.515 1.407c-.268.163-.396.338-.396.536a.64.64 0 0 0 .396.535l2.515 1.442-.443.767-2.515-1.442a.626.626 0 0 0-.652-.093.67.67 0 0 0-.256.617v2.873h-.85v-2.873Zm-104.938 0a.667.667 0 0 0-.268-.617.626.626 0 0 0-.652.093l-2.515 1.442-.431-.767 2.492-1.442a.657.657 0 0 0 .384-.535c0-.198-.128-.373-.384-.536l-2.492-1.407.431-.768 2.515 1.443a.674.674 0 0 0 .652.069.627.627 0 0 0 .221-.27.632.632 0 0 0 .047-.346v-2.861h.85v2.861c0 .314.081.523.256.616a.699.699 0 0 0 .664-.069l2.503-1.443.443.768-2.515 1.407c-.257.163-.396.338-.396.536a.662.662 0 0 0 .396.535l2.515 1.442-.443.767-2.503-1.442a.545.545 0 0 0-.896.172.545.545 0 0 0-.024.352v2.873h-.85v-2.873Zm-104.938 0a.667.667 0 0 0-.268-.617.634.634 0 0 0-.339-.043.635.635 0 0 0-.313.136l-2.503 1.442-.443-.767 2.492-1.442a.675.675 0 0 0 .396-.535c0-.198-.14-.373-.396-.536l-2.492-1.407.443-.768 2.503 1.443a.674.674 0 0 0 .652.069.636.636 0 0 0 .268-.616v-2.861h.85v2.861a.64.64 0 0 0 .268.616.674.674 0 0 0 .652-.069l2.503-1.443.443.768-2.515 1.407c-.257.163-.385.338-.385.536a.649.649 0 0 0 .385.535l2.515 1.442-.443.767-2.503-1.442a.635.635 0 0 0-.313-.136.634.634 0 0 0-.339.043.665.665 0 0 0-.268.617v2.873h-.85v-2.873Zm-104.938 0a.545.545 0 0 0-.258-.616.545.545 0 0 0-.662.092l-2.503 1.442-.443-.767 2.492-1.442a.642.642 0 0 0 .396-.535c0-.198-.128-.373-.396-.536l-2.492-1.407.443-.768 2.503 1.443a.697.697 0 0 0 .664.069c.174-.093.256-.302.256-.616v-2.861h.85v2.861a.64.64 0 0 0 .268.616.674.674 0 0 0 .652-.069l2.515-1.443.431.768-2.504 1.407c-.267.163-.396.338-.396.536a.64.64 0 0 0 .396.535l2.504 1.442-.431.767-2.515-1.442a.63.63 0 0 0-.652-.093.665.665 0 0 0-.268.617v2.873h-.85v-2.873Zm-104.938 0a.659.659 0 0 0-.256-.617.626.626 0 0 0-.652.093l-2.515 1.442-.431-.767 2.48-1.442a.642.642 0 0 0 .396-.535c0-.198-.128-.373-.396-.536l-2.48-1.407.431-.768 2.515 1.443a.674.674 0 0 0 .652.069c.175-.093.256-.302.256-.616v-2.861h.862v2.861c0 .314.081.523.256.616a.674.674 0 0 0 .652-.069l2.515-1.443.431.768-2.515 1.407c-.268.163-.396.338-.396.536a.642.642 0 0 0 .396.535l2.503 1.442-.43.767-2.516-1.442a.626.626 0 0 0-.652-.093.67.67 0 0 0-.256.617v2.873h-.862l.012-2.873Zm-104.926 0a.667.667 0 0 0-.268-.617.626.626 0 0 0-.652.093l-2.515 1.442-.431-.767 2.492-1.442a.661.661 0 0 0 .384-.535c0-.198-.128-.373-.384-.536l-2.492-1.407.431-.768 2.515 1.443a.674.674 0 0 0 .652.069.634.634 0 0 0 .268-.616v-2.861h.85v2.861c0 .314.081.523.256.616a.699.699 0 0 0 .664-.069l2.503-1.443.443.768-2.516 1.407c-.256.163-.395.338-.395.536a.665.665 0 0 0 .395.535l2.516 1.442-.443.767-2.503-1.442a.544.544 0 0 0-.896.172.539.539 0 0 0-.024.352v2.873h-.85v-2.873Zm-104.938 0a.667.667 0 0 0-.268-.617.634.634 0 0 0-.339-.043.635.635 0 0 0-.313.136l-2.515 1.442-.431-.767 2.492-1.442a.655.655 0 0 0 .384-.535c0-.198-.128-.373-.384-.536l-2.492-1.407.431-.768 2.515 1.443a.674.674 0 0 0 .652.069.634.634 0 0 0 .268-.616v-2.861h.85v2.861c0 .314.081.523.268.616a.674.674 0 0 0 .652-.069l2.503-1.443.443.768-2.515 1.407c-.257.163-.396.338-.396.536a.665.665 0 0 0 .396.535l2.515 1.442-.443.767-2.503-1.442a.64.64 0 0 0-.652-.093.64.64 0 0 0-.268.617v2.873h-.85v-2.873Zm-104.938 0a.545.545 0 0 0-.258-.616.545.545 0 0 0-.662.092l-2.504 1.442-.442-.767 2.492-1.442a.675.675 0 0 0 .396-.535c0-.198-.14-.373-.396-.536l-2.492-1.407.442-.768 2.504 1.443a.697.697 0 0 0 .664.069c.174-.093.256-.302.256-.616v-2.861h.85v2.861a.64.64 0 0 0 .268.616.674.674 0 0 0 .652-.069l2.515-1.443.431.768-2.515 1.407c-.257.163-.385.338-.385.536a.649.649 0 0 0 .385.535l2.515 1.442-.431.767-2.515-1.442a.64.64 0 0 0-.652-.093.665.665 0 0 0-.268.617v2.873h-.85v-2.873Zm-104.938 0a.662.662 0 0 0-.256-.617.626.626 0 0 0-.652.093l-2.516 1.442-.442-.767 2.492-1.442a.643.643 0 0 0 .396-.535c0-.198-.128-.373-.396-.536L0 532.735l.442-.768 2.516 1.443a.673.673 0 0 0 .652.069c.174-.093.256-.302.256-.616v-2.861h.85v2.861a.638.638 0 0 0 .268.616.675.675 0 0 0 .652-.069l2.515-1.443.43.768-2.503 1.407c-.268.163-.396.338-.396.536a.638.638 0 0 0 .396.535l2.504 1.442-.431.767-2.515-1.442a.626.626 0 0 0-.652-.093.669.669 0 0 0-.268.617v2.873h-.85v-2.873Z"/>
    <path fill="#3F3E3D" stroke="#3F3E3D" stroke-miterlimit="10" d="M843.777 633.578a2.374 2.374 0 1 0 0-4.745 2.373 2.373 0 1 0 0 4.745Zm-104.938 0a2.374 2.374 0 1 0 0-4.745 2.373 2.373 0 1 0 0 4.745Zm-104.938 0a2.374 2.374 0 1 0 0-4.745 2.373 2.373 0 1 0 0 4.745Zm-104.938 0a2.374 2.374 0 0 0 2.376-2.373 2.374 2.374 0 0 0-2.376-2.372 2.373 2.373 0 1 0 0 4.745Zm-104.926 0a2.374 2.374 0 1 0 0-4.745 2.374 2.374 0 0 0-2.376 2.372 2.374 2.374 0 0 0 2.376 2.373Zm-104.938 0a2.374 2.374 0 1 0 0-4.745 2.374 2.374 0 0 0-2.376 2.372 2.374 2.374 0 0 0 2.376 2.373Zm-104.938 0a2.374 2.374 0 1 0 0-4.745 2.373 2.373 0 1 0 0 4.745Zm-104.938 0a2.374 2.374 0 1 0 0-4.745 2.373 2.373 0 1 0 0 4.745Zm-104.938 0a2.374 2.374 0 1 0 0-4.745 2.374 2.374 0 1 0 0 4.745Zm944.418 0a2.374 2.374 0 0 0 2.376-2.373 2.374 2.374 0 0 0-2.376-2.372 2.373 2.373 0 1 0 0 4.745Zm-104.926 85.699a2.374 2.374 0 1 0 0-4.745 2.373 2.373 0 1 0 0 4.745Zm-104.938 0a2.374 2.374 0 1 0 0-4.745 2.373 2.373 0 1 0 0 4.745Zm-104.938 0a2.374 2.374 0 1 0 0-4.745 2.373 2.373 0 1 0 0 4.745Zm-104.938 0a2.374 2.374 0 0 0 2.376-2.373 2.374 2.374 0 0 0-2.376-2.372 2.373 2.373 0 1 0 0 4.745Zm-104.926 0a2.374 2.374 0 1 0 0-4.745 2.374 2.374 0 0 0-2.376 2.372 2.374 2.374 0 0 0 2.376 2.373Zm-104.938 0a2.374 2.374 0 1 0 0-4.745 2.374 2.374 0 0 0-2.376 2.372 2.374 2.374 0 0 0 2.376 2.373Zm-209.876 0a2.374 2.374 0 1 0 0-4.745 2.373 2.373 0 1 0 0 4.745Zm-104.938 0a2.374 2.374 0 1 0 0-4.745 2.374 2.374 0 1 0 0 4.745Zm944.418 0a2.374 2.374 0 0 0 2.376-2.373 2.374 2.374 0 0 0-2.376-2.372 2.373 2.373 0 1 0 0 4.745Zm-104.926 86.13a2.374 2.374 0 1 0 .002-4.748 2.374 2.374 0 0 0-.002 4.748Zm-104.938 0a2.374 2.374 0 1 0 .002-4.748 2.374 2.374 0 0 0-.002 4.748Zm-104.938 0a2.374 2.374 0 1 0 .002-4.748 2.374 2.374 0 0 0-.002 4.748Zm-104.938 0a2.375 2.375 0 0 0 2.376-2.373 2.375 2.375 0 0 0-4.751 0 2.374 2.374 0 0 0 2.375 2.373Zm-104.926 0a2.374 2.374 0 1 0 0-4.746 2.375 2.375 0 0 0-2.376 2.373 2.375 2.375 0 0 0 2.376 2.373Zm-104.938 0a2.374 2.374 0 1 0 0-4.746 2.375 2.375 0 0 0-2.376 2.373 2.375 2.375 0 0 0 2.376 2.373Zm-104.938 0a2.374 2.374 0 1 0 .002-4.748 2.374 2.374 0 0 0-.002 4.748Zm-104.938 0a2.374 2.374 0 1 0 .002-4.748 2.374 2.374 0 0 0-.002 4.748Zm-104.938 0a2.375 2.375 0 0 0 2.376-2.373 2.375 2.375 0 0 0-4.751 0 2.375 2.375 0 0 0 2.375 2.373Zm944.418 0a2.375 2.375 0 0 0 2.376-2.373 2.375 2.375 0 0 0-4.751 0 2.374 2.374 0 0 0 2.375 2.373Z"/>
  </g>
  <defs>
    <clipPath id="a">
      <path fill="#fff" d="M0 0h953v806H0z"/>
    </clipPath>
  </defs>
</svg>
