<svg xmlns="http://www.w3.org/2000/svg" width="40" height="40" fill="none" viewBox="0 0 40 40">
  <g clip-path="url(#a)">
    <path fill="#3F3E3D" d="M19.997 0A20.007 20.007 0 0 0 3.116 9.271a19.973 19.973 0 0 0-1.217 19.211l11.98-1.664 2.588-3.899 3.53-5.322 3.179 4.559 4.596 6.876 4.61-.523-4.417-6.876-7.954-12.082-9.001 13.952-6.75 1.135a16.389 16.389 0 0 1 6.86-18.42 16.418 16.418 0 0 1 23.805 6.962 16.39 16.39 0 0 1 1.49 6.81v.481l-6.977.915 2.153 3.369 4.274-.55a16.405 16.405 0 0 1-4.798 7.896 16.422 16.422 0 0 1-17.486 2.982 16.416 16.416 0 0 1-7.147-5.858l-3.88.591a20.003 20.003 0 0 0 17.273 10.177 20.021 20.021 0 0 0 17.432-9.904 19.987 19.987 0 0 0-7.238-27.392A20.02 20.02 0 0 0 19.997 0Z"/>
  </g>
  <defs>
    <clipPath id="a">
      <path fill="#fff" d="M0 0h40v40H0z"/>
    </clipPath>
  </defs>
</svg>
