<svg xmlns="http://www.w3.org/2000/svg" width="24" height="24" fill="none" viewBox="0 0 24 24">
  <g clip-path="url(#a)">
    <path fill="#FBFAF3" d="M11.998 0A12.004 12.004 0 0 0 1.87 5.563a11.984 11.984 0 0 0-.73 11.526l7.188-.998 1.552-2.34 2.118-3.193 1.907 2.736 2.758 4.125 2.767-.313-2.651-4.126-4.773-7.25-5.4 8.372-4.05.68a9.834 9.834 0 0 1 4.116-11.05 9.851 9.851 0 0 1 14.283 4.176 9.835 9.835 0 0 1 .894 4.086v.289l-4.186.548 1.292 2.022 2.564-.33a9.843 9.843 0 0 1-7.862 7.17 9.857 9.857 0 0 1-9.797-4.158l-2.328.355a12.001 12.001 0 0 0 10.364 6.105 12.013 12.013 0 0 0 10.46-5.942 11.992 11.992 0 0 0-4.343-16.435A12.013 12.013 0 0 0 11.998 0Z"/>
  </g>
  <defs>
    <clipPath id="a">
      <path fill="#fff" d="M0 0h24v24H0z"/>
    </clipPath>
  </defs>
</svg>
