<?xml version="1.0" encoding="utf-8"?>
<!-- Generator: Adobe Illustrator 25.4.1, SVG Export Plug-In . SVG Version: 6.00 Build 0)  -->
<svg version="1.1" id="Layer_1" xmlns="http://www.w3.org/2000/svg" xmlns:xlink="http://www.w3.org/1999/xlink" x="0px" y="0px"
	 viewBox="0 0 108 79" style="enable-background:new 0 0 108 79;" xml:space="preserve">
<style type="text/css">
	.st0{fill:#0000FF;}
</style>
<g>
	<path class="st0" d="M91.9,65.4c0,5.3,1.2,6.5,7,6.5h9.1v7H65.2v-7h9c3.4,0,5.9-0.1,5.9-6.4V42.3H27.8v23.1c0,5.3,1.2,6.5,7,6.5h8
		v7H0v-7h10.3c3.4,0,5.9-0.1,5.9-6.4v-52c0-6.1-2.5-6.4-7-6.4H0V0h42.8v7.1h-9.1c-3.4,0-5.9,0.3-5.9,6.4v20.9H80V13.6
		c0-6.1-2.5-6.4-7-6.4h-7.9V0H108v7.1H97.7c-3.4,0-5.9,0.3-5.9,6.4V65.4z"/>
</g>
</svg>
