<?xml version="1.0" encoding="utf-8"?>
<!-- Generator: Adobe Illustrator 25.4.1, SVG Export Plug-In . SVG Version: 6.00 Build 0)  -->
<svg version="1.1" id="Layer_1" xmlns="http://www.w3.org/2000/svg" xmlns:xlink="http://www.w3.org/1999/xlink" x="0px" y="0px"
	 viewBox="0 0 1080 49" style="enable-background:new 0 0 1080 49;" xml:space="preserve">
<style type="text/css">
	.st0{fill:#0000FF;}
</style>
<path class="st0" d="M219.3,43h-14.9V9c0-3.7,1.5-3.8,3.5-3.8h7.9V1h-27.8v4.2h5.4c3.4,0,4.1,0.7,4.1,3.9v30.7
	c0,3.8-1.5,3.8-4.1,3.8h-5.4v4.1h50.2c0.9-6.7,1.7-13.5,2.7-20.3c-1.3-0.1-2.6-0.3-3.9-0.5C233.9,43.6,231.4,43,219.3,43z M284.4,43
	h-19.7V26h11.7c3.7,0,3.9,1.5,3.9,3.5v5.4h4.1V12.5h-4.1v4.7c0,3.4-0.8,4.1-3.9,4.1h-11.6V5.8h20.4c6.9,0,10.1,1.7,11.9,12.7
	c1.3-0.2,2.7-0.4,4-0.5L298.5,1h-50.3v4.2h5.4c3.4,0,4.1,0.7,4.1,3.9v30.7c0,3.8-1.5,3.8-4.1,3.8h-5.4v4.1h51.4
	c0.9-6.6,1.7-13.2,2.7-19.9l-3.9-0.4C295.8,41.5,293.2,43,284.4,43z M158.9,43H144V9c0-3.7,1.5-3.8,3.5-3.8h7.9V1h-27.8v4.2h5.4
	c3.4,0,4.1,0.7,4.1,3.9v30.7c0,3.8-1.5,3.8-4.1,3.8h-5.4v4.1h50.2c0.9-6.7,1.7-13.5,2.7-20.3c-1.3-0.1-2.6-0.3-3.9-0.5
	C173.5,43.6,171.1,43,158.9,43z M52.8,1H2.4L0,18.3l3.9,0.5C5.8,6.8,9.1,5.7,15.4,5.7h8.7v34c0,3.7-1.5,3.9-3.5,3.9h-6v4.1h26v-4.1
	h-5.4c-3.4,0-4.1-0.8-4.1-3.9V5.7h8.7c6.3,0,9.7,1.1,11.5,13.1l4-0.5L52.8,1z M444.4,19.2l-3.3-0.4c-0.7,7-3.1,8.4-8.5,8.4h-11.8
	v-9.3h6.4c2.1,0,2.4,0.7,2.4,1.8v3.5h3.4V8.7h-3.4v3.1c0,1.9-0.7,2.1-2.4,2.1h-6.4V4.9H434c4.1,0.1,5.7,1.7,6.5,7.6l3.3-0.5L442.4,1
	h-33.5v3.4h3.7c1.9,0,2.3,0.7,2.3,2.5v18.5c0,2.1-0.8,2.4-2.3,2.4h-3.7v3.5h34.2L444.4,19.2z M406.6,15.9c0-9.1-6.4-14.9-17.5-14.9
	h-20v3.4h3.7c1.9,0,2.3,0.7,2.3,2.4v18.6c0,2.1-0.8,2.4-1.9,2.4h-4.1v3.4H389C400.1,31.2,406.6,24.6,406.6,15.9z M381.1,27.3V4.9
	h7.8c6.1,0,11.5,3.3,11.5,11c0,7.3-5.3,11.3-11.8,11.3H381.1z M111.7,40.4C104.7,27.3,97.4,14.1,90.4,1H73.2v4.2h7.5
	c1.7,0,2.3,1.3,1.5,2.9c-5.7,10.8-11.5,21.6-17.3,32.4c-1.1,2.1-2.2,3.1-4.6,3.1h-5.7v4.1h25v-4.1h-6.2c-2.3,0-3.3-1.3-2.3-3.1
	l3.1-6.2h26.2l3.3,6.5c1.1,2.1-0.6,2.8-2.1,2.8h-6.5v4.1h27.2v-4.1H117C113.6,43.6,112.7,42.2,111.7,40.4z M76.6,29.6L87,9.7
	c3.6,6.6,7.1,13.3,10.8,19.9H76.6z M800.7,5.2h5.2c3.4,0,4.1,0.7,4.1,3.9v28.3L774.9,1h-16.3v4.2h5.4c3.4,0,4.1,0.7,4.1,3.9v30.6
	c0,3.7-1.5,3.9-3.5,3.9h-6.1v4.1h23.9v-4.1h-5.1c-3.4,0-4.1-0.8-4.1-3.9V9.3l37.1,38.4h4.8V9c0-3.7,1.5-3.8,3.5-3.8h6.1V1h-23.9V5.2
	z M864,31.2h10.1c1.5,0,1.7,0.9,1.7,1.9v3.1c-3.6,4.1-9.9,7.4-18.2,7.4c-12.1,0-21.8-7.3-21.8-19.5c0-11.6,9.5-19,21-19
	c9.5,0,18,4.9,20.5,13.5l4.1-0.6l-2.5-17.1h-4.1c0.3,2,0.3,3.6-0.9,3.6c-2.5,0-7.5-4.5-18.1-4.5c-13.2,0-27.3,8.3-27.3,24
	c0,14.9,11.7,24.7,28.1,24.7c9.2,0,15.6-2.6,20.5-7.2l1.7,6.2h3.5V34.3c0-2.9,1-3.1,3-3.1h4.3v-4.7H864V31.2z M894.8,1l-2.4,17.4
	l3.9,0.5c1.9-12.1,5.2-13.1,11.5-13.1h8.7v34c0,3.7-1.5,3.9-3.5,3.9h-6v4.1h26v-4.1h-5.4c-3.4,0-4.1-0.8-4.1-3.9V5.7h8.7
	c6.3,0,9.7,1.1,11.5,13.1l4-0.5L945.2,1H894.8z M980.7,0c-16.4,0-28.3,9.6-28.3,24.4c0,14.7,11.9,24.4,28.3,24.4
	c16.3,0,28.3-9.6,28.3-24.4C1009,9.6,997,0,980.7,0z M980.7,43.7c-11.2,0-20.9-6.6-20.9-19.3c0-12.7,9.7-19.3,20.9-19.3
	c11.2,0,20.9,6.5,20.9,19.3C1001.6,37.1,991.9,43.7,980.7,43.7z M1056,1v4.2h5.2c3.4,0,4.1,0.7,4.1,3.9v28.3L1030.2,1h-16.4v4.2h5.4
	c3.4,0,4.1,0.7,4.1,3.9v30.6c0,3.7-1.5,3.9-3.5,3.9h-6.1v4.1h24v-4.1h-5.1c-3.4,0-4.1-0.8-4.1-3.9V9.3l37.1,38.4h4.8V9
	c0-3.7,1.5-3.8,3.5-3.8h6.1V1H1056z M574.3,40.4C567.2,27.3,560,14.1,553,1h-17.1v4.2h7.5c1.7,0,2.3,1.3,1.5,2.9
	c-5.7,10.8-11.5,21.6-17.3,32.4c-1.1,2.1-2.2,3.1-4.6,3.1h-5.7v4.1h25v-4.1h-6.2c-2.3,0-3.3-1.3-2.3-3.1l3.1-6.2h26.2l3.3,6.5
	c1.1,2.1-0.6,2.8-2.1,2.8h-6.5v4.1h27.2v-4.1h-5.1C576.2,43.6,575.2,42.2,574.3,40.4z M539.2,29.6l10.3-19.9
	c3.6,6.6,7.1,13.3,10.8,19.9H539.2z M489.7,5.2h4.7c2.7,0,4.1,0.2,4.1,3.8v12.3h-30.9V9c0-3.6,1.5-3.8,3.5-3.8h5.4V1h-25.4v4.2h5.4
	c2.7,0,4.1,0.2,4.1,3.8v30.8c0,3.7-1.5,3.8-3.5,3.8h-87.7l0,0c-1.1,0-3.8,0-7-1.2c-0.1,0-0.2-0.1-0.3-0.1c-0.1,0-0.2-0.1-0.3-0.2
	c-2-0.9-3.7-2.1-5.3-3.5c0,0-0.1-0.1-0.1-0.1c0,0,0,0-0.1-0.1c-2.4-2.4-4.8-5.9-6.7-11c5.5-0.7,12.8-4.8,12.8-13.2
	c0-10.5-9.1-13.2-18.5-13.2h-32.6v4.2h5.4c3.4,0,4.1,0.7,4.1,3.9v30.6c0,3.7-1.5,3.9-3.5,3.9h-6.1v4.1h26.1v-4.1h-5.4
	c-3.4,0-4.1-0.8-4.1-3.9V28.2h14.3c2.8,9.1,11.3,20.1,26.1,19.9c0,0,23.6-0.4,26.9-0.4l-0.1,0h81.5v-4.1h-4.7
	c-3.4,0-4.1-0.7-4.1-3.9V26h30.9v13.7c0,3.7-1.5,3.8-3.5,3.8h-5.3v4.1H515v-4.1h-5.4c-3.4,0-4.1-0.7-4.1-3.9V9
	c0-3.6,1.5-3.8,3.5-3.8h6.1V1h-25.4V5.2z M343.4,23.4h-15.6V5.7h15.5c6.7,0,11.7,3,11.7,8.5C355.1,19.9,350.2,23.4,343.4,23.4z
	 M627.1,27.4c5.5-0.7,12.8-4.8,12.8-13.2c0-10.5-9.1-13.2-18.6-13.2h-32.6v4.2h5.4c3.4,0,4.1,0.7,4.1,3.9v30.6
	c0,3.7-1.5,3.9-3.5,3.9h-6.1v4.1h26.1v-4.1h-5.4c-3.4,0-4.1-0.8-4.1-3.9V28.2h14.3c3.1,10,13,22.4,30.7,19.6l-0.5-4.3
	C637.9,45.4,629.6,36,627.1,27.4z M605.3,23.4V5.7h15.5c6.7,0,11.7,3,11.7,8.5c0,5.7-4.9,9.2-11.7,9.2H605.3z M694.3,27.4
	c5.5-0.7,12.8-4.8,12.8-13.2c0-10.5-9.1-13.2-18.6-13.2h-32.6v4.2h5.4c3.4,0,4.1,0.7,4.1,3.9v30.6c0,3.7-1.5,3.9-3.5,3.9h-6.1v4.1
	H682v-4.1h-5.4c-3.4,0-4.1-0.8-4.1-3.9V28.2h14.3c3.1,10,13,22.4,30.7,19.6l-0.5-4.3C705,45.4,696.7,36,694.3,27.4z M672.5,23.4V5.7
	H688c6.7,0,11.7,3,11.7,8.5c0,5.7-4.9,9.2-11.7,9.2H672.5z M723.1,5.2h5.4c2.9,0,4.1,0.4,4.1,3.9v30.7c0,3.7-1.5,3.8-3.5,3.8h-6.1
	v4.1h26v-4.1h-5.4c-3.4,0-4.1-0.7-4.1-3.9V9c0-3.6,1.5-3.8,3.5-3.8h6.1V1h-26V5.2z"/>
</svg>
